<svg width="313" height="114" viewBox="0 0 313 114" fill="none" xmlns="http://www.w3.org/2000/svg">
<g clip-path="url(#clip0_13095_81171)">
<path d="M50.8417 54.3293C50.5736 53.7768 50.019 53.4268 49.3894 53.4268H45.0011C44.6021 53.4268 44.2219 53.5742 43.9289 53.8381C41.2549 56.2449 38.1507 57.35 34.5479 57.1289C28.2148 56.7299 23.4899 52.0393 23.5585 46.2191C23.6084 41.8662 27.2486 38.3175 31.7616 38.3175C33.5817 38.3359 35.4205 39.1832 36.5674 40.5155C36.7794 40.7611 37.0785 41.1663 37.2843 41.6083C37.3903 41.946 37.3778 42.2898 37.2655 42.609C36.9788 43.3703 36.1062 43.8185 35.2958 43.5914C35.2833 43.5852 35.2709 43.5791 35.2646 43.5791C34.7536 43.3949 34.2174 43.3028 33.6751 43.3028C31.7428 43.3028 29.9913 44.5061 29.3243 46.2989C28.6636 48.0793 29.1996 50.0685 30.6645 51.3086C30.7206 51.3824 30.8017 51.4499 30.8889 51.4991L30.9948 51.5665C31.0072 51.5788 31.026 51.5911 31.0384 51.6034C31.0945 51.6586 31.1507 51.7077 31.2254 51.7507C33.5629 53.0339 36.3555 53.1136 38.7304 51.9778C41.4792 50.6518 43.4241 47.9258 43.9352 44.678C44.3964 41.7434 43.5238 38.821 41.4731 36.4389C39.1168 33.7006 35.5139 32.043 31.8364 32H31.668C23.7454 32 17.2255 38.3482 17.132 46.1515C17.1132 47.6986 17.3189 49.2028 17.6992 50.6457C17.4186 50.6149 17.1444 50.5781 16.8639 50.5658C10.3938 50.1545 4.64667 52.7515 0.358153 57.9885C-0.0345462 58.4735 -0.109346 59.1181 0.158687 59.6768C0.426718 60.2355 0.981482 60.5793 1.61105 60.5793H5.99929C6.39822 60.5793 6.77846 60.432 7.07142 60.168C9.74551 57.7614 12.8622 56.6439 16.4526 56.8772C22.7855 57.2762 27.5104 61.9669 27.4419 67.787C27.3919 72.14 23.7517 75.6887 19.2389 75.6824C17.4249 75.6641 15.5799 74.8168 14.4329 73.4845C14.2211 73.2389 13.9218 72.8338 13.7224 72.3918C13.6164 72.0541 13.6289 71.7041 13.7411 71.3909C14.0278 70.6297 14.9129 70.1815 15.7108 70.4086C15.7233 70.4147 15.7357 70.4147 15.7419 70.4209C16.253 70.6051 16.7892 70.6972 17.3314 70.6972C19.2638 70.6972 21.0091 69.4939 21.676 67.7011C22.3368 65.9207 21.8007 63.9315 20.3358 62.6914C20.2798 62.6176 20.205 62.5562 20.1177 62.5072L20.0118 62.4396C19.9992 62.4273 19.9806 62.415 19.9619 62.4027C19.9058 62.3474 19.8434 62.2984 19.7749 62.2554C17.4312 60.9723 14.6386 60.8924 12.27 62.0282C9.52111 63.3543 7.57631 66.0803 7.06519 69.3281C6.60392 72.2627 7.47659 75.1851 9.52734 77.5673C11.8835 80.3055 15.4801 81.9631 19.1578 82H19.3262C27.2486 82 33.7687 75.6518 33.8622 67.8485C33.8808 66.3014 33.6751 64.7972 33.295 63.3543C33.5754 63.3851 33.8496 63.4219 34.1302 63.4342C34.5665 63.4588 34.9966 63.4772 35.4267 63.4772C41.3795 63.4772 46.6404 60.8924 50.636 56.0115C51.0349 55.5388 51.1098 54.8942 50.8417 54.3293Z" fill="#0CAFC0"/>
<path d="M82.4693 47.0304L82.5247 51.1987V54.569H94.0553C94.3386 55.6373 94.4865 56.8037 94.4865 58.0683C94.4865 59.3329 94.3448 60.4993 94.0553 61.5675H82.5247V76.2643C81.3852 76.4791 79.9686 76.5835 78.2624 76.5835C76.5562 76.5835 75.1333 76.4791 74 76.2643V40.081L74.3757 39.7617H97.326C97.5416 40.6519 97.6464 41.7692 97.6464 43.1013C97.6464 44.4397 97.2767 45.428 96.5437 46.0665C95.8047 46.705 94.6529 47.0304 93.0698 47.0304H82.4693Z" fill="#97134B"/>
<path d="M119.31 51.9479C121.885 54.5141 123.172 58.1851 123.172 62.9614C123.172 65.0977 122.895 67.0438 122.34 68.7873C121.786 70.5369 120.979 72.0226 119.926 73.2503C118.873 74.4782 117.573 75.4235 116.039 76.0866C114.506 76.7434 112.732 77.0749 110.73 77.0749C108.728 77.0749 106.966 76.7373 105.451 76.062C103.93 75.3868 102.642 74.429 101.589 73.2013C100.536 71.9734 99.735 70.4816 99.1991 68.7381C98.6632 66.9947 98.3984 65.067 98.3984 62.9675C98.3984 60.8311 98.6632 58.8974 99.1991 57.1662C99.735 55.4349 100.523 53.9493 101.558 52.703C102.593 51.4569 103.88 50.493 105.42 49.8177C106.954 49.1425 108.728 48.8048 110.73 48.8048C114.271 48.7925 117.129 49.8484 119.31 51.9479ZM110.761 55.0482C109.966 55.0482 109.332 55.2324 108.845 55.6068C108.358 55.9813 107.97 56.4908 107.681 57.1293C107.391 57.7677 107.194 58.5105 107.09 59.3455C106.979 60.1804 106.929 61.0828 106.929 62.0466C106.929 63.5446 106.972 64.8337 107.065 65.9203C107.151 67.007 107.336 67.9155 107.607 68.6461C107.878 69.3766 108.254 69.923 108.74 70.2791C109.227 70.6351 109.867 70.8131 110.656 70.8131C112.239 70.8131 113.286 70.1256 113.791 68.7566C114.296 67.3875 114.549 65.4354 114.549 62.9061C114.549 60.34 114.296 58.3878 113.791 57.0556C113.28 55.7174 112.27 55.0482 110.761 55.0482Z" fill="#97134B"/>
<path d="M126.393 53.4456C126.571 52.7335 126.91 51.9416 127.409 51.0699C127.908 50.198 128.407 49.5658 128.912 49.1729C132.201 49.4246 134.486 51.0453 135.774 54.035C137.129 50.8304 139.365 49.222 142.476 49.222C143.406 49.222 144.589 49.3632 146.017 49.6517C146.017 50.7568 145.827 52.0644 145.458 53.5807C145.082 55.097 144.57 56.3862 143.929 57.4544C143.32 57.2395 142.408 57.0616 141.194 56.9204C139.408 56.9204 137.942 57.8289 136.796 59.6461V76.2705C135.62 76.4853 134.234 76.5898 132.639 76.5898C131.049 76.5898 129.645 76.4853 128.425 76.2705V59.0014C128.431 56.3309 127.748 54.477 126.393 53.4456Z" fill="#97134B"/>
<path d="M166.99 49.541C167.205 50.5293 167.311 51.5177 167.311 52.5062C167.311 53.4945 167.205 54.4644 166.99 55.4222L160.609 55.3178V67.6142C160.609 69.2901 161.391 70.1251 162.968 70.1251H165.974C166.436 71.4204 166.67 72.6053 166.67 73.6795C166.67 74.76 166.596 75.5336 166.454 75.9939C163.806 76.35 161.378 76.5342 159.162 76.5342C154.658 76.5342 152.403 74.0541 152.403 69.0876V55.3669L148.221 55.4222C147.969 54.5382 147.846 53.5743 147.846 52.5368C147.846 51.4931 147.969 50.4986 148.221 49.541L152.403 49.6453V46.5451C152.403 44.728 152.755 43.4388 153.451 42.6714C154.147 41.9041 155.318 41.5234 156.963 41.5234H160.234L160.609 41.8979V49.6515L166.99 49.541Z" fill="#97134B"/>
<path d="M191.932 65.6316H177.986C178.061 67.2216 178.466 68.4555 179.212 69.3334C179.957 70.2174 181.19 70.6532 182.902 70.6532C183.758 70.6532 184.743 70.5305 185.865 70.2911C186.985 70.0516 188.279 69.6526 189.738 69.1001C190.916 70.3094 191.641 71.9486 191.932 74.0174C189.073 76.0494 185.569 77.0624 181.417 77.0624C179.162 77.0624 177.278 76.7064 175.756 75.9943C174.236 75.282 173.003 74.2814 172.054 72.9984C171.107 71.7153 170.435 70.199 170.047 68.4555C169.652 66.712 169.455 64.8029 169.455 62.734C169.455 60.7387 169.696 58.8971 170.175 57.2028C170.662 55.5083 171.389 54.0411 172.375 52.7949C173.361 51.5486 174.611 50.5664 176.126 49.8543C177.647 49.1422 179.427 48.7861 181.46 48.7861C183.179 48.7861 184.725 49.0746 186.098 49.6394C187.472 50.2103 188.649 50.9962 189.61 51.9907C190.576 52.9913 191.316 54.1823 191.839 55.5698C192.356 56.9571 192.614 58.4735 192.614 60.1125C192.628 62.298 192.393 64.1336 191.932 65.6316ZM177.931 59.8609H184.959V59.2715C184.959 57.9516 184.67 56.8651 184.085 56.0118C183.499 55.1585 182.618 54.7286 181.448 54.7286C180.315 54.7286 179.47 55.1277 178.923 55.9319C178.369 56.73 178.035 58.0438 177.931 59.8609Z" fill="#97134B"/>
<path d="M198.954 39.6514C201.849 39.5777 204.325 39.5286 206.382 39.4918C208.439 39.4549 210.09 39.4365 211.34 39.4365C215.239 39.4365 218.3 40.2469 220.536 41.8676C222.771 43.4883 223.887 45.9193 223.887 49.1607C223.887 50.7323 223.443 52.1872 222.55 53.544C221.658 54.9006 220.518 55.8768 219.126 56.4846C220.018 56.7731 220.863 57.2273 221.67 57.8474C222.47 58.4736 223.161 59.2041 223.732 60.039C224.306 60.874 224.761 61.7825 225.095 62.7648C225.433 63.747 225.606 64.7538 225.606 65.7852C225.606 69.4563 224.435 72.1697 222.094 73.9378C219.753 75.6997 216.434 76.5837 212.147 76.5837C210.822 76.5837 209.073 76.5653 206.893 76.5284C204.713 76.4915 202.064 76.4364 198.954 76.3688L198.578 75.9943V40.0197L198.954 39.6514ZM207.108 45.4773V54.0842H210.891C212.597 54.0842 213.792 53.6667 214.488 52.8257C215.177 51.9907 215.528 50.9655 215.528 49.7501C215.528 48.5407 215.172 47.5339 214.463 46.7297C213.755 45.9316 212.56 45.5264 210.891 45.5264C210.071 45.5264 209.357 45.5264 208.735 45.5264C208.107 45.5326 207.57 45.5141 207.108 45.4773ZM211.532 60.1802H207.103V70.6043C208.026 70.5674 209.068 70.5674 210.225 70.6043C211.383 70.6412 212.455 70.549 213.452 70.3342C214.451 70.1193 215.282 69.6035 215.959 68.7871C216.637 67.9707 216.976 66.8288 216.976 65.3677C216.976 63.9803 216.539 62.7647 215.67 61.7333C214.796 60.6959 213.416 60.1802 211.532 60.1802Z" fill="#97134B"/>
<path d="M253.44 72.4213C253.261 73.1703 252.922 73.9744 252.423 74.8277C251.925 75.681 251.407 76.3072 250.872 76.7002C248.37 76.6265 246.436 75.6811 245.081 73.8639C242.753 76.0004 240.233 77.0685 237.517 77.0685C236.125 77.0685 234.905 76.8474 233.871 76.3994C232.836 75.9512 231.955 75.3557 231.241 74.6068C230.526 73.8578 229.99 72.9922 229.633 72.0161C229.276 71.0338 229.098 70.0087 229.098 68.9405C229.098 67.4058 229.375 66.0613 229.929 64.9072C230.483 63.7468 231.241 62.7892 232.208 62.0218C233.175 61.2545 234.296 60.6774 235.589 60.2844C236.876 59.8916 238.251 59.6951 239.716 59.6951C240.535 59.6951 241.262 59.7074 241.89 59.7197C242.519 59.7381 243.061 59.7627 243.523 59.7995V58.7803C243.523 56.509 242.358 55.3733 240.036 55.3733C238.533 55.3733 235.91 55.9626 232.152 57.1352C231.08 55.889 230.403 53.949 230.114 51.3092C230.97 50.99 231.931 50.683 232.983 50.4006C234.038 50.1183 235.122 49.8666 236.23 49.6517C237.338 49.4369 238.429 49.2711 239.501 49.1422C240.573 49.0194 241.539 48.958 242.396 48.958C243.646 48.958 244.853 49.136 246.017 49.4922C247.182 49.8482 248.198 50.3945 249.073 51.125C249.947 51.8556 250.643 52.8009 251.166 53.9552C251.684 55.1154 251.943 56.4967 251.943 58.0989V68.9528C251.937 70.5858 252.442 71.746 253.44 72.4213ZM237.246 68.4126C237.246 70.0885 238.213 70.9233 240.141 70.9233C241.146 70.9233 242.266 70.4077 243.523 69.3702V65.0974C242.808 65.0607 242.211 65.0361 241.724 65.0177C241.244 64.9992 240.874 64.9931 240.628 64.9931C238.374 64.9931 237.246 66.1288 237.246 68.4126Z" fill="#97134B"/>
<path d="M281.274 58.6268V69.585C281.274 71.9362 281.705 73.6981 282.561 74.8767C281.2 76.0861 279.574 76.6939 277.683 76.6939C275.823 76.6939 274.554 76.2642 273.877 75.4109C273.198 74.5576 272.86 73.2561 272.86 71.5065V60.1248C272.86 58.9153 272.7 58.0252 272.379 57.4543C272.059 56.8833 271.43 56.6009 270.501 56.6009C269.965 56.6009 269.356 56.7421 268.677 57.0307C268 57.3192 267.297 57.7796 266.584 58.418V76.2703C265.974 76.3747 265.315 76.4545 264.6 76.5097C263.886 76.565 263.152 76.5896 262.401 76.5896C261.649 76.5896 260.917 76.565 260.202 76.5097C259.488 76.4545 258.823 76.3747 258.219 76.2703V49.5963L258.594 49.2219H261.76C263.941 49.2219 265.406 50.29 266.158 52.4265C268.66 50.2164 271.148 49.1113 273.612 49.1113C276.112 49.1113 278.015 49.9769 279.321 51.7021C280.621 53.4332 281.274 55.7415 281.274 58.6268Z" fill="#97134B"/>
<path d="M308.087 65.6318L309.43 69.5362C310.144 71.8875 311.001 73.4037 312.004 74.0791C310.428 75.8226 308.554 76.7004 306.374 76.7004C305.192 76.7004 304.298 76.4242 303.695 75.8717C303.086 75.3191 302.549 74.3492 302.087 72.9557L300.48 68.3575C300.123 67.2525 299.71 66.5097 299.247 66.1413C298.78 65.7669 298.158 65.5827 297.369 65.5827C296.581 65.5827 296.027 65.6011 295.706 65.638V76.2769C294.53 76.4917 293.168 76.5961 291.629 76.5961C290.089 76.5961 288.733 76.4917 287.551 76.2769V37.3003L287.927 36.9258H291.142C292.823 36.9258 294.001 37.3003 294.684 38.0492C295.362 38.7982 295.699 40.0997 295.699 41.9536V58.7377H296.556C297.202 58.7377 297.703 58.4184 298.059 57.7739L300.849 52.4267C301.853 50.3947 303.424 49.3818 305.567 49.3818C306.603 49.3818 308.161 49.4187 310.237 49.4862L310.557 49.916L306.43 57.8782C305.716 59.235 304.804 60.2848 303.695 61.0336C305.839 61.8195 307.304 63.3543 308.087 65.6318Z" fill="#97134B"/>
</g>
<defs>
<clipPath id="clip0_13095_81171">
<rect width="312.004" height="114" fill="white"/>
</clipPath>
</defs>
</svg>
